<svg xmlns="http://www.w3.org/2000/svg" xmlns:xlink="http://www.w3.org/1999/xlink" xmlns:lucid="lucid" width="1260" height="1206.25"><g transform="translate(-199.99999999999997 -28.261885697923162)" lucid:page-tab-id="0_0"><path d="M0 0h1760v1360H0z" fill-opacity="0"/><path d="M740 340h240v60H740z" fill="none"/><use xlink:href="#a" transform="matrix(1,0,0,1,740,340) translate(100.320987654321 35.15555555555556)"/><path d="M550 1025.7h240v60H550z" fill="none"/><use xlink:href="#b" transform="matrix(1,0,0,1,550,1025.7120090955377) translate(101.77777777777779 35.15555555555556)"/><path d="M1100 980h240v60h-240z" fill="none"/><use xlink:href="#a" transform="matrix(1,0,0,1,1100,980) translate(100.320987654321 35.15555555555556)"/><path d="M700 1035.7h201.5v40H700z" fill="none"/><use xlink:href="#c" transform="matrix(1,0,0,1,700,1035.7120090955377) translate(51.9567901234568 26.044444444444444)"/><path d="M800 1075.7h240v60H800z" fill="none"/><use xlink:href="#a" transform="matrix(1,0,0,1,800,1075.7120090955377) translate(100.320987654321 35.15555555555556)"/><path d="M680 420h180v40H680z" fill="none"/><use xlink:href="#d" transform="matrix(1,0,0,1,680,420) translate(66.60493827160495 26.044444444444444)"/><path d="M378.38 56.26a8 8 0 0 1 8-8h947.34a8 8 0 0 1 8 8v114.69a8 8 0 0 1-8 8H386.38a8 8 0 0 1-8-8z" stroke="#000" stroke-opacity="0" stroke-width="2" fill="#fff" fill-opacity="0"/><use xlink:href="#e" transform="matrix(1,0,0,1,382.3757867242416,52.26188569792316) translate(213.6365432098766 69.20638888888888)"/><use xlink:href="#f" transform="matrix(1,0,0,1,382.3757867242416,52.26188569792316) translate(408.3081481481482 69.20638888888888)"/><use xlink:href="#g" transform="matrix(1,0,0,1,382.3757867242416,52.26188569792316) translate(573.818024691358 69.20638888888888)"/><use xlink:href="#h" transform="matrix(1,0,0,1,382.3757867242416,52.26188569792316) translate(632.2390123456789 69.20638888888888)"/><path d="M242.63 276.95a8 8 0 0 1 8-8h391.25a8 8 0 0 1 8 8v234a8 8 0 0 1-8 8H250.63a8 8 0 0 1-8-8z" fill="#fff"/><path d="M242.63 276.95a8 8 0 0 1 8-8h391.25a8 8 0 0 1 8 8v234a8 8 0 0 1-8 8H250.63a8 8 0 0 1-8-8zM242.63 308.95h407.25M302.63 308.95v210M589.88 308.95v210" stroke="#3a414a" fill="none"/><use xlink:href="#i" transform="matrix(1,0,0,1,252.62511238917742,268.9538049135896) translate(165.4074074074074 25.15555555555556)"/><use xlink:href="#j" transform="matrix(1,0,0,1,247.62511238917742,311.4538049135896) translate(13.148148148148145 20.155555555555555)"/><use xlink:href="#k" transform="matrix(1,0,0,1,307.6251123891774,311.4538049135896) translate(100.53086419753087 20.155555555555555)"/><use xlink:href="#l" transform="matrix(1,0,0,1,594.8771353943704,311.4538049135896) translate(15.641975308641973 20.155555555555555)"/><use xlink:href="#m" transform="matrix(1,0,0,1,307.6251123891774,346.4538049135896) translate(94.1111111111111 20.155555555555555)"/><use xlink:href="#n" transform="matrix(1,0,0,1,594.8771353943704,346.4538049135896) translate(3.3209876543209838 20.155555555555555)"/><use xlink:href="#o" transform="matrix(1,0,0,1,307.6251123891774,381.4538049135896) translate(77.34567901234568 20.155555555555555)"/><use xlink:href="#l" transform="matrix(1,0,0,1,594.8771353943704,381.4538049135896) translate(15.641975308641973 20.155555555555555)"/><use xlink:href="#p" transform="matrix(1,0,0,1,307.6251123891774,416.4538049135896) translate(85.22222222222223 20.155555555555555)"/><use xlink:href="#n" transform="matrix(1,0,0,1,594.8771353943704,416.4538049135896) translate(3.3209876543209838 20.155555555555555)"/><use xlink:href="#q" transform="matrix(1,0,0,1,307.6251123891774,451.4538049135896) translate(102.50617283950618 20.155555555555555)"/><use xlink:href="#n" transform="matrix(1,0,0,1,594.8771353943704,451.4538049135896) translate(3.3209876543209838 20.155555555555555)"/><use xlink:href="#r" transform="matrix(1,0,0,1,307.6251123891774,486.4538049135896) translate(121.74074074074075 20.155555555555555)"/><use xlink:href="#l" transform="matrix(1,0,0,1,594.8771353943704,486.4538049135896) translate(15.641975308641973 20.155555555555555)"/><path d="M220 1002.26a8 8 0 0 1 8-8h416.2a8 8 0 0 1 8 8v164a8 8 0 0 1-8 8H228a8 8 0 0 1-8-8z" fill="#fff"/><path d="M220 1002.26a8 8 0 0 1 8-8h416.2a8 8 0 0 1 8 8v164a8 8 0 0 1-8 8H228a8 8 0 0 1-8-8zM220 1034.26h432.2M280 1034.26v140M592.2 1034.26v140" stroke="#3a414a" fill="none"/><use xlink:href="#s" transform="matrix(1,0,0,1,229.99999999999997,994.2619790268552) translate(175.8827160493827 25.15555555555556)"/><use xlink:href="#j" transform="matrix(1,0,0,1,224.99999999999997,1036.7619790268552) translate(13.148148148148145 20.155555555555555)"/><use xlink:href="#t" transform="matrix(1,0,0,1,285,1036.7619790268552) translate(110.53703703703704 20.155555555555555)"/><use xlink:href="#l" transform="matrix(1,0,0,1,597.1899585300514,1036.7619790268552) translate(15.641975308641973 20.155555555555555)"/><use xlink:href="#u" transform="matrix(1,0,0,1,224.99999999999997,1071.7619790268552) translate(13.666666666666664 20.155555555555555)"/><use xlink:href="#k" transform="matrix(1,0,0,1,285,1071.7619790268552) translate(113.03086419753087 20.155555555555555)"/><use xlink:href="#l" transform="matrix(1,0,0,1,597.1899585300514,1071.7619790268552) translate(15.641975308641973 20.155555555555555)"/><use xlink:href="#v" transform="matrix(1,0,0,1,285,1106.7619790268552) translate(110.0925925925926 20.155555555555555)"/><use xlink:href="#n" transform="matrix(1,0,0,1,597.1899585300514,1106.7619790268552) translate(3.3209876543209838 20.155555555555555)"/><use xlink:href="#w" transform="matrix(1,0,0,1,285,1141.7619790268552) translate(110.56172839506173 20.155555555555555)"/><use xlink:href="#n" transform="matrix(1,0,0,1,597.1899585300514,1141.7619790268552) translate(3.3209876543209838 20.155555555555555)"/><path d="M900.44 326.17a8 8 0 0 1 8-8H1432a8 8 0 0 1 8 8v164a8 8 0 0 1-8 8H908.44a8 8 0 0 1-8-8z" fill="#fff"/><path d="M900.44 326.17a8 8 0 0 1 8-8H1432a8 8 0 0 1 8 8v164a8 8 0 0 1-8 8H908.44a8 8 0 0 1-8-8zM900.44 358.17H1440M960.44 358.17v140M1380 358.17v140" stroke="#3a414a" fill="none"/><use xlink:href="#x" transform="matrix(1,0,0,1,910.4412542587427,318.1726968937487) translate(213.62962962962962 25.15555555555556)"/><use xlink:href="#j" transform="matrix(1,0,0,1,905.4412542587427,360.6726968937487) translate(13.148148148148145 20.155555555555555)"/><use xlink:href="#y" transform="matrix(1,0,0,1,965.4412542587427,360.6726968937487) translate(147.7901234567901 20.155555555555555)"/><use xlink:href="#l" transform="matrix(1,0,0,1,1384.9999999999998,360.6726968937487) translate(15.641975308641973 20.155555555555555)"/><use xlink:href="#u" transform="matrix(1,0,0,1,905.4412542587427,395.6726968937487) translate(13.666666666666664 20.155555555555555)"/><use xlink:href="#k" transform="matrix(1,0,0,1,965.4412542587427,395.6726968937487) translate(166.53086419753086 20.155555555555555)"/><use xlink:href="#l" transform="matrix(1,0,0,1,1384.9999999999998,395.6726968937487) translate(15.641975308641973 20.155555555555555)"/><use xlink:href="#z" transform="matrix(1,0,0,1,965.4412542587427,430.6726968937487) translate(160.58024691358023 20.155555555555555)"/><use xlink:href="#A" transform="matrix(1,0,0,1,1384.9999999999998,430.6726968937487) translate(8.234567901234566 20.155555555555555)"/><use xlink:href="#B" transform="matrix(1,0,0,1,965.4412542587427,465.6726968937487) translate(170.9506172839506 20.155555555555555)"/><use xlink:href="#n" transform="matrix(1,0,0,1,1384.9999999999998,465.6726968937487) translate(3.3209876543209838 20.155555555555555)"/><path d="M955.28 1042.52a8 8 0 0 1 8-8h413.88a8 8 0 0 1 8 8v164a8 8 0 0 1-8 8H963.28a8 8 0 0 1-8-8z" fill="#fff"/><path d="M955.28 1042.52a8 8 0 0 1 8-8h413.88a8 8 0 0 1 8 8v164a8 8 0 0 1-8 8H963.28a8 8 0 0 1-8-8zM955.28 1074.52h429.88M1015.28 1074.52v140M1325.16 1074.52v140" stroke="#3a414a" fill="none"/><use xlink:href="#C" transform="matrix(1,0,0,1,965.2820594321861,1034.5158912460208) translate(180.33333333333331 25.15555555555556)"/><use xlink:href="#j" transform="matrix(1,0,0,1,960.2820594321861,1077.0158912460208) translate(13.148148148148145 20.155555555555555)"/><use xlink:href="#D" transform="matrix(1,0,0,1,1020.2820594321861,1077.0158912460208) translate(115.48148148148148 20.155555555555555)"/><use xlink:href="#l" transform="matrix(1,0,0,1,1330.1591948265564,1077.0158912460208) translate(15.641975308641973 20.155555555555555)"/><use xlink:href="#u" transform="matrix(1,0,0,1,960.2820594321861,1112.0158912460208) translate(13.666666666666664 20.155555555555555)"/><use xlink:href="#y" transform="matrix(1,0,0,1,1020.2820594321861,1112.0158912460208) translate(92.79012345679011 20.155555555555555)"/><use xlink:href="#l" transform="matrix(1,0,0,1,1330.1591948265564,1112.0158912460208) translate(15.641975308641973 20.155555555555555)"/><use xlink:href="#u" transform="matrix(1,0,0,1,960.2820594321861,1147.0158912460208) translate(13.666666666666664 20.155555555555555)"/><use xlink:href="#t" transform="matrix(1,0,0,1,1020.2820594321861,1147.0158912460208) translate(109.03703703703704 20.155555555555555)"/><use xlink:href="#l" transform="matrix(1,0,0,1,1330.1591948265564,1147.0158912460208) translate(15.641975308641973 20.155555555555555)"/><use xlink:href="#E" transform="matrix(1,0,0,1,1020.2820594321861,1182.0158912460208) translate(128.2962962962963 20.155555555555555)"/><use xlink:href="#A" transform="matrix(1,0,0,1,1330.1591948265564,1182.0158912460208) translate(8.234567901234566 20.155555555555555)"/><path d="M446.25 539.45v212.08a5.08 5.08 0 0 1-5.08 5.08 5.08 5.08 0 0 0-5.07 5.1v192.56" stroke="#3a414a" fill="none"/><path d="M436.25 529.45h20M446.25 519.45v20M436.25 539.45h20" stroke="#3a414a" fill="#fff"/><path d="M426.1 993.54l10-20 10 20" stroke="#3a414a" fill="#fff" fill-opacity="0"/><path d="M436.1 993.54v-20M446.1 963.54c0 5.52-4.48 10-10 10-5.53 0-10-4.48-10-10s4.47-10 10-10c5.52 0 10 4.48 10 10" stroke="#3a414a" fill="#fff"/><use xlink:href="#a" transform="matrix(1,0,0,1,454.09497926502564,931.7071687791864) translate(0.004999999999997229 17.422222222222224)"/><path d="M670.38 396.46h97.67a7.1 7.1 0 0 1 7.1 7.1 7.1 7.1 0 0 0 7.12 7.12h78.17" stroke="#3a414a" fill="none"/><path d="M660.38 406.46v-20M650.38 396.46h20M670.38 406.46v-20" stroke="#3a414a" fill="#fff"/><path d="M899.72 420.68l-20-10 20-10" stroke="#3a414a" fill="#fff" fill-opacity="0"/><path d="M899.72 410.68h-20M879.72 410.68c0 5.52-4.48 10-10 10s-10-4.48-10-10 4.48-10 10-10 10 4.48 10 10" stroke="#3a414a" fill="#fff"/><path d="M672.7 1086.77h119.04a12 12 0 0 1 12 12v16.25a12 12 0 0 0 12 12h99.54" stroke="#3a414a" fill="none"/><path d="M662.7 1096.77v-20M652.7 1086.77h20M672.7 1096.77v-20" stroke="#3a414a" fill="#fff"/><path d="M954.56 1137.02l-20-10 20-10" stroke="#3a414a" fill="#fff" fill-opacity="0"/><path d="M954.56 1127.02h-20M934.56 1127.02c0 5.53-4.48 10-10 10s-10-4.47-10-10c0-5.52 4.48-10 10-10s10 4.48 10 10" stroke="#3a414a" fill="#fff"/><path d="M1170.22 518.67v475.85" stroke="#3a414a" fill="none"/><path d="M1160.22 508.67h20M1170.22 498.67v20M1160.22 518.67h20" stroke="#3a414a" fill="#fff"/><path d="M1160.22 1033.8l10-20 10 20" stroke="#3a414a" fill="#fff" fill-opacity="0"/><path d="M1170.22 1033.8v-20M1180.22 1003.8c0 5.52-4.48 10-10 10s-10-4.48-10-10c0-5.53 4.48-10 10-10s10 4.47 10 10" stroke="#3a414a" fill="#fff"/><path d="M1125 746.1a8 8 0 0 1 8-8h255.5a8 8 0 0 1 8 8v68.36a8 8 0 0 1-8 8H1133a8 8 0 0 1-8-8z" stroke="#000" stroke-opacity="0" fill="#fff" fill-opacity="0"/><use xlink:href="#F" transform="matrix(1,0,0,1,1130.0044955670955,743.0885581302135) translate(68.80864197530865 42.071527777777774)"/><use xlink:href="#G" transform="matrix(1,0,0,1,1130.0044955670955,743.0885581302135) translate(168.56172839506172 42.071527777777774)"/><path d="M360 507.37a8 8 0 0 1 8-8h255.5a8 8 0 0 1 8 8v68.37a8 8 0 0 1-8 8H368a8 8 0 0 1-8-8z" stroke="#000" stroke-opacity="0" fill="#fff" fill-opacity="0"/><use xlink:href="#b" transform="matrix(1,0,0,1,365,504.36881474326566) translate(112.77777777777779 40.859722222222224)"/><path d="M652.2 348a8 8 0 0 1 8-8h44a8 8 0 0 1 8 8v17.6a8 8 0 0 1-8 8h-44a8 8 0 0 1-8-8z" stroke="#000" stroke-opacity="0" fill="#fff" fill-opacity="0"/><use xlink:href="#H" transform="matrix(1,0,0,1,657.1899585300514,345) translate(4.5000000000000036 19.2)"/><path d="M1080 507.37a8 8 0 0 1 8-8h224a8 8 0 0 1 8 8v44a8 8 0 0 1-8 8h-224a8 8 0 0 1-8-8z" stroke="#000" stroke-opacity="0" fill="#fff" fill-opacity="0"/><g><use xlink:href="#b" transform="matrix(1,0,0,1,1085,504.36881474326566) translate(96.77777777777779 29.922222222222224)"/></g><path d="M371.5 759.47a8 8 0 0 1 8-8h224a8 8 0 0 1 8 8v44a8 8 0 0 1-8 8h-224a8 8 0 0 1-8-8z" stroke="#000" stroke-opacity="0" fill="#fff" fill-opacity="0"/><g><use xlink:href="#d" transform="matrix(1,0,0,1,376.50134867012866,756.4722976770096) translate(91.60493827160495 30.352777777777778)"/></g><defs><path fill="#3a414a" d="M67-93c0 74 22 123 53 168H70C40 30 18-18 18-93s22-123 52-168h50c-32 44-53 94-53 168" id="I"/><path fill="#3a414a" d="M101-251c68 0 84 54 84 127C185-50 166 4 99 4S15-52 14-124c-1-75 17-127 87-127zm-1 216c37-5 36-46 36-89s4-89-36-89c-39 0-36 45-36 89 0 43-3 85 36 89" id="J"/><path fill="#3a414a" d="M76-54c-1 42 2 86-19 110H24C36 42 46 24 48 0H25v-54h51" id="K"/><path fill="#3a414a" d="M175 0L67-191c6 58 2 128 3 191H24v-248h59L193-55c-6-58-2-129-3-193h46V0h-61" id="L"/><path fill="#3a414a" d="M102-93c0 74-22 123-52 168H0C30 29 54-18 53-93c0-74-22-123-53-168h50c30 45 52 94 52 168" id="M"/><g id="a"><use transform="matrix(0.04938271604938272,0,0,0.04938271604938272,0,0)" xlink:href="#I"/><use transform="matrix(0.04938271604938272,0,0,0.04938271604938272,5.8765432098765435,0)" xlink:href="#J"/><use transform="matrix(0.04938271604938272,0,0,0.04938271604938272,15.753086419753087,0)" xlink:href="#K"/><use transform="matrix(0.04938271604938272,0,0,0.04938271604938272,20.69135802469136,0)" xlink:href="#L"/><use transform="matrix(0.04938271604938272,0,0,0.04938271604938272,33.48148148148149,0)" xlink:href="#M"/></g><path fill="#3a414a" d="M23 0v-37h61v-169l-59 37v-38l62-41h46v211h57V0H23" id="N"/><g id="b"><use transform="matrix(0.04938271604938272,0,0,0.04938271604938272,0,0)" xlink:href="#I"/><use transform="matrix(0.04938271604938272,0,0,0.04938271604938272,5.8765432098765435,0)" xlink:href="#N"/><use transform="matrix(0.04938271604938272,0,0,0.04938271604938272,15.753086419753087,0)" xlink:href="#K"/><use transform="matrix(0.04938271604938272,0,0,0.04938271604938272,20.69135802469136,0)" xlink:href="#N"/><use transform="matrix(0.04938271604938272,0,0,0.04938271604938272,30.567901234567906,0)" xlink:href="#M"/></g><path fill="#3a414a" d="M140-251c80 0 125 45 125 126S219 4 139 4C58 4 15-44 15-125s44-126 125-126zm-1 214c52 0 73-35 73-88 0-50-21-86-72-86-52 0-73 35-73 86s22 88 72 88" id="O"/><path fill="#3a414a" d="M182-130c37 4 62 22 62 59C244 23 116-4 24 0v-248c84 5 203-23 205 63 0 31-19 50-47 55zM76-148c40-3 101 13 101-30 0-44-60-28-101-31v61zm0 110c48-3 116 14 116-37 0-48-69-32-116-35v72" id="P"/><path fill="#3a414a" d="M136-208V0H84v-208H4v-40h212v40h-80" id="Q"/><path fill="#3a414a" d="M199 0l-22-63H83L61 0H9l90-248h61L250 0h-51zm-33-102l-36-108c-10 38-24 72-36 108h72" id="R"/><path fill="#3a414a" d="M24 0v-248h52V0H24" id="S"/><path fill="#3a414a" d="M169-182c-1-43-94-46-97-3 18 66 151 10 154 114 3 95-165 93-204 36-6-8-10-19-12-30l50-8c3 46 112 56 116 5-17-69-150-10-154-114-4-87 153-88 188-35 5 8 8 18 10 28" id="T"/><g id="c"><use transform="matrix(0.06172839506172839,0,0,0.06172839506172839,0,0)" xlink:href="#O"/><use transform="matrix(0.06172839506172839,0,0,0.06172839506172839,17.28395061728395,0)" xlink:href="#P"/><use transform="matrix(0.06172839506172839,0,0,0.06172839506172839,33.2716049382716,0)" xlink:href="#Q"/><use transform="matrix(0.06172839506172839,0,0,0.06172839506172839,45.12345679012345,0)" xlink:href="#R"/><use transform="matrix(0.06172839506172839,0,0,0.06172839506172839,61.1111111111111,0)" xlink:href="#S"/><use transform="matrix(0.06172839506172839,0,0,0.06172839506172839,67.28395061728394,0)" xlink:href="#L"/><use transform="matrix(0.06172839506172839,0,0,0.06172839506172839,83.2716049382716,0)" xlink:href="#T"/></g><path fill="#3a414a" d="M186 0v-106H76V0H24v-248h52v99h110v-99h50V0h-50" id="U"/><g id="d"><use transform="matrix(0.06172839506172839,0,0,0.06172839506172839,0,0)" xlink:href="#U"/><use transform="matrix(0.06172839506172839,0,0,0.06172839506172839,15.987654320987653,0)" xlink:href="#R"/><use transform="matrix(0.06172839506172839,0,0,0.06172839506172839,31.975308641975307,0)" xlink:href="#T"/></g><path d="M67-125c0 54 23 88 75 88 28 0 53-7 68-21v-34h-60v-39h108v91C232-14 192 4 140 4 58 4 20-42 15-125 8-236 126-280 215-234c19 10 29 26 37 47l-47 15c-11-23-29-39-63-39-53 1-75 33-75 86" id="V"/><path d="M135-150c-39-12-60 13-60 57V0H25l-1-190h47c2 13-1 29 3 40 6-28 27-53 61-41v41" id="W"/><path d="M133-34C117-15 103 5 69 4 32 3 11-16 11-54c-1-60 55-63 116-61 1-26-3-47-28-47-18 1-26 9-28 27l-52-2c7-38 36-58 82-57s74 22 75 68l1 82c-1 14 12 18 25 15v27c-30 8-71 5-69-32zm-48 3c29 0 43-24 42-57-32 0-66-3-65 30 0 17 8 27 23 27" id="X"/><path d="M88-194c31-1 46 15 58 34l-1-101h50l1 261h-48c-2-10 0-23-3-31C134-8 116 4 84 4 32 4 16-41 15-95c0-56 19-97 73-99zm17 164c33 0 40-30 41-66 1-37-9-64-41-64s-38 30-39 65c0 43 13 65 39 65" id="Y"/><path d="M185-48c-13 30-37 53-82 52C43 2 14-33 14-96s30-98 90-98c62 0 83 45 84 108H66c0 31 8 55 39 56 18 0 30-7 34-22zm-45-69c5-46-57-63-70-21-2 6-4 13-4 21h74" id="Z"/><path d="M135-194c52 0 70 43 70 98 0 56-19 99-73 100-30 1-46-15-58-35L72 0H24l1-261h50v104c11-23 29-37 60-37zM114-30c31 0 40-27 40-66 0-37-7-63-39-63s-41 28-41 65c0 36 8 64 40 64" id="aa"/><path d="M110-194c64 0 96 36 96 99 0 64-35 99-97 99-61 0-95-36-95-99 0-62 34-99 96-99zm-1 164c35 0 45-28 45-65 0-40-10-65-43-65-34 0-45 26-45 65 0 36 10 65 43 65" id="ab"/><path d="M147 0L96-86 75-71V0H25v-261h50v150l67-79h53l-66 74L201 0h-54" id="ac"/><g id="e"><use transform="matrix(0.09753086419753083,0,0,0.09753086419753083,0,0)" xlink:href="#V"/><use transform="matrix(0.09753086419753083,0,0,0.09753086419753083,27.308641975308632,0)" xlink:href="#W"/><use transform="matrix(0.09753086419753083,0,0,0.09753086419753083,40.96296296296295,0)" xlink:href="#X"/><use transform="matrix(0.09753086419753083,0,0,0.09753086419753083,60.469135802469104,0)" xlink:href="#Y"/><use transform="matrix(0.09753086419753083,0,0,0.09753086419753083,81.82839506172837,0)" xlink:href="#Z"/><use transform="matrix(0.09753086419753083,0,0,0.09753086419753083,101.33456790123454,0)" xlink:href="#aa"/><use transform="matrix(0.09753086419753083,0,0,0.09753086419753083,122.69382716049378,0)" xlink:href="#ab"/><use transform="matrix(0.09753086419753083,0,0,0.09753086419753083,144.05308641975304,0)" xlink:href="#ab"/><use transform="matrix(0.09753086419753083,0,0,0.09753086419753083,165.4123456790123,0)" xlink:href="#ac"/></g><path d="M24-248c120-7 223 5 221 122C244-46 201 0 124 0H24v-248zM76-40c74 7 117-18 117-86 0-67-45-88-117-82v168" id="ad"/><path d="M115-3C79 11 28 4 28-45v-112H4v-33h27l15-45h31v45h36v33H77v99c-1 23 16 31 38 25v30" id="ae"/><path d="M137-138c1-29-70-34-71-4 15 46 118 7 119 86 1 83-164 76-172 9l43-7c4 19 20 25 44 25 33 8 57-30 24-41C81-84 22-81 20-136c-2-80 154-74 161-7" id="af"/><g id="f"><use transform="matrix(0.09753086419753083,0,0,0.09753086419753083,0,0)" xlink:href="#ad"/><use transform="matrix(0.09753086419753083,0,0,0.09753086419753083,25.260493827160484,0)" xlink:href="#X"/><use transform="matrix(0.09753086419753083,0,0,0.09753086419753083,44.76666666666665,0)" xlink:href="#ae"/><use transform="matrix(0.09753086419753083,0,0,0.09753086419753083,56.372839506172824,0)" xlink:href="#X"/><use transform="matrix(0.09753086419753083,0,0,0.09753086419753083,75.87901234567899,0)" xlink:href="#aa"/><use transform="matrix(0.09753086419753083,0,0,0.09753086419753083,97.23827160493823,0)" xlink:href="#X"/><use transform="matrix(0.09753086419753083,0,0,0.09753086419753083,116.74444444444441,0)" xlink:href="#af"/><use transform="matrix(0.09753086419753083,0,0,0.09753086419753083,136.25061728395056,0)" xlink:href="#Z"/></g><path d="M24 0v-248h195v40H76v63h132v40H76v65h150V0H24" id="ag"/><path d="M240-174c0 40-23 61-54 70L253 0h-59l-57-94H76V0H24v-248c93 4 217-23 216 74zM76-134c48-2 112 12 112-38 0-48-66-32-112-35v73" id="ah"/><g id="g"><use transform="matrix(0.09753086419753083,0,0,0.09753086419753083,0,0)" xlink:href="#ag"/><use transform="matrix(0.09753086419753083,0,0,0.09753086419753083,23.4074074074074,0)" xlink:href="#ah"/></g><path d="M25-224v-37h50v37H25zM25 0v-190h50V0H25" id="ai"/><path d="M195-6C206 82 75 100 31 46c-4-6-6-13-8-21l49-6c3 16 16 24 34 25 40 0 42-37 40-79-11 22-30 35-61 35-53 0-70-43-70-97 0-56 18-96 73-97 30 0 46 14 59 34l2-30h47zm-90-29c32 0 41-27 41-63 0-35-9-62-40-62-32 0-39 29-40 63 0 36 9 62 39 62" id="aj"/><path d="M135-194c87-1 58 113 63 194h-50c-7-57 23-157-34-157-59 0-34 97-39 157H25l-1-190h47c2 12-1 28 3 38 12-26 28-41 61-42" id="ak"/><g id="h"><use transform="matrix(0.09753086419753083,0,0,0.09753086419753083,0,0)" xlink:href="#ad"/><use transform="matrix(0.09753086419753083,0,0,0.09753086419753083,25.260493827160484,0)" xlink:href="#Z"/><use transform="matrix(0.09753086419753083,0,0,0.09753086419753083,44.76666666666665,0)" xlink:href="#af"/><use transform="matrix(0.09753086419753083,0,0,0.09753086419753083,64.27283950617282,0)" xlink:href="#ai"/><use transform="matrix(0.09753086419753083,0,0,0.09753086419753083,74.0259259259259,0)" xlink:href="#aj"/><use transform="matrix(0.09753086419753083,0,0,0.09753086419753083,95.38518518518515,0)" xlink:href="#ak"/></g><path fill="#3a414a" d="M212-179c-10-28-35-45-73-45-59 0-87 40-87 99 0 60 29 101 89 101 43 0 62-24 78-52l27 14C228-24 195 4 139 4 59 4 22-46 18-125c-6-104 99-153 187-111 19 9 31 26 39 46" id="al"/><path fill="#3a414a" d="M100-194c62-1 85 37 85 99 1 63-27 99-86 99S16-35 15-95c0-66 28-99 85-99zM99-20c44 1 53-31 53-75 0-43-8-75-51-75s-53 32-53 75 10 74 51 75" id="am"/><path fill="#3a414a" d="M84 4C-5 8 30-112 23-190h32v120c0 31 7 50 39 49 72-2 45-101 50-169h31l1 190h-30c-1-10 1-25-2-33-11 22-28 36-60 37" id="an"/><path fill="#3a414a" d="M114-163C36-179 61-72 57 0H25l-1-190h30c1 12-1 29 2 39 6-27 23-49 58-41v29" id="ao"/><path fill="#3a414a" d="M135-143c-3-34-86-38-87 0 15 53 115 12 119 90S17 21 10-45l28-5c4 36 97 45 98 0-10-56-113-15-118-90-4-57 82-63 122-42 12 7 21 19 24 35" id="ap"/><path fill="#3a414a" d="M100-194c63 0 86 42 84 106H49c0 40 14 67 53 68 26 1 43-12 49-29l28 8c-11 28-37 45-77 45C44 4 14-33 15-96c1-61 26-98 85-98zm52 81c6-60-76-77-97-28-3 7-6 17-6 28h103" id="aq"/><g id="i"><use transform="matrix(0.04938271604938272,0,0,0.04938271604938272,0,0)" xlink:href="#al"/><use transform="matrix(0.04938271604938272,0,0,0.04938271604938272,12.790123456790125,0)" xlink:href="#am"/><use transform="matrix(0.04938271604938272,0,0,0.04938271604938272,22.66666666666667,0)" xlink:href="#an"/><use transform="matrix(0.04938271604938272,0,0,0.04938271604938272,32.543209876543216,0)" xlink:href="#ao"/><use transform="matrix(0.04938271604938272,0,0,0.04938271604938272,38.41975308641976,0)" xlink:href="#ap"/><use transform="matrix(0.04938271604938272,0,0,0.04938271604938272,47.308641975308646,0)" xlink:href="#aq"/></g><path fill="#3a414a" d="M30-248c87 1 191-15 191 75 0 78-77 80-158 76V0H30v-248zm33 125c57 0 124 11 124-50 0-59-68-47-124-48v98" id="ar"/><path fill="#3a414a" d="M194 0L95-120 63-95V0H30v-248h33v124l119-124h40L117-140 236 0h-42" id="as"/><g id="j"><use transform="matrix(0.04938271604938272,0,0,0.04938271604938272,0,0)" xlink:href="#ar"/><use transform="matrix(0.04938271604938272,0,0,0.04938271604938272,11.851851851851853,0)" xlink:href="#as"/></g><path fill="#3a414a" d="M96-169c-40 0-48 33-48 73s9 75 48 75c24 0 41-14 43-38l32 2c-6 37-31 61-74 61-59 0-76-41-82-99-10-93 101-131 147-64 4 7 5 14 7 22l-32 3c-4-21-16-35-41-35" id="at"/><path fill="#3a414a" d="M-5 72V49h209v23H-5" id="au"/><path fill="#3a414a" d="M24-231v-30h32v30H24zM24 0v-190h32V0H24" id="av"/><path fill="#3a414a" d="M85-194c31 0 48 13 60 33l-1-100h32l1 261h-30c-2-10 0-23-3-31C134-8 116 4 85 4 32 4 16-35 15-94c0-66 23-100 70-100zm9 24c-40 0-46 34-46 75 0 40 6 74 45 74 42 0 51-32 51-76 0-42-9-74-50-73" id="aw"/><g id="k"><use transform="matrix(0.04938271604938272,0,0,0.04938271604938272,0,0)" xlink:href="#at"/><use transform="matrix(0.04938271604938272,0,0,0.04938271604938272,8.88888888888889,0)" xlink:href="#am"/><use transform="matrix(0.04938271604938272,0,0,0.04938271604938272,18.765432098765434,0)" xlink:href="#an"/><use transform="matrix(0.04938271604938272,0,0,0.04938271604938272,28.641975308641978,0)" xlink:href="#ao"/><use transform="matrix(0.04938271604938272,0,0,0.04938271604938272,34.51851851851852,0)" xlink:href="#ap"/><use transform="matrix(0.04938271604938272,0,0,0.04938271604938272,43.407407407407405,0)" xlink:href="#aq"/><use transform="matrix(0.04938271604938272,0,0,0.04938271604938272,53.28395061728394,0)" xlink:href="#au"/><use transform="matrix(0.04938271604938272,0,0,0.04938271604938272,63.1604938271605,0)" xlink:href="#av"/><use transform="matrix(0.04938271604938272,0,0,0.04938271604938272,67.06172839506173,0)" xlink:href="#aw"/></g><path fill="#3a414a" d="M117-194c89-4 53 116 60 194h-32v-121c0-31-8-49-39-48C34-167 62-67 57 0H25l-1-190h30c1 10-1 24 2 32 11-22 29-35 61-36" id="ax"/><path fill="#3a414a" d="M59-47c-2 24 18 29 38 22v24C64 9 27 4 27-40v-127H5v-23h24l9-43h21v43h35v23H59v120" id="ay"/><g id="l"><use transform="matrix(0.04938271604938272,0,0,0.04938271604938272,0,0)" xlink:href="#av"/><use transform="matrix(0.04938271604938272,0,0,0.04938271604938272,3.901234567901235,0)" xlink:href="#ax"/><use transform="matrix(0.04938271604938272,0,0,0.04938271604938272,13.777777777777779,0)" xlink:href="#ay"/></g><path fill="#3a414a" d="M115-194c55 1 70 41 70 98S169 2 115 4C84 4 66-9 55-30l1 105H24l-1-265h31l2 30c10-21 28-34 59-34zm-8 174c40 0 45-34 45-75s-6-73-45-74c-42 0-51 32-51 76 0 43 10 73 51 73" id="az"/><path fill="#3a414a" d="M141-36C126-15 110 5 73 4 37 3 15-17 15-53c-1-64 63-63 125-63 3-35-9-54-41-54-24 1-41 7-42 31l-33-3c5-37 33-52 76-52 45 0 72 20 72 64v82c-1 20 7 32 28 27v20c-31 9-61-2-59-35zM48-53c0 20 12 33 32 33 41-3 63-29 60-74-43 2-92-5-92 41" id="aA"/><path fill="#3a414a" d="M210-169c-67 3-38 105-44 169h-31v-121c0-29-5-50-35-48C34-165 62-65 56 0H25l-1-190h30c1 10-1 24 2 32 10-44 99-50 107 0 11-21 27-35 58-36 85-2 47 119 55 194h-31v-121c0-29-5-49-35-48" id="aB"/><g id="m"><use transform="matrix(0.04938271604938272,0,0,0.04938271604938272,0,0)" xlink:href="#aw"/><use transform="matrix(0.04938271604938272,0,0,0.04938271604938272,9.876543209876544,0)" xlink:href="#aq"/><use transform="matrix(0.04938271604938272,0,0,0.04938271604938272,19.75308641975309,0)" xlink:href="#az"/><use transform="matrix(0.04938271604938272,0,0,0.04938271604938272,29.629629629629633,0)" xlink:href="#aA"/><use transform="matrix(0.04938271604938272,0,0,0.04938271604938272,39.50617283950618,0)" xlink:href="#ao"/><use transform="matrix(0.04938271604938272,0,0,0.04938271604938272,45.38271604938272,0)" xlink:href="#ay"/><use transform="matrix(0.04938271604938272,0,0,0.04938271604938272,50.320987654320994,0)" xlink:href="#aB"/><use transform="matrix(0.04938271604938272,0,0,0.04938271604938272,65.08641975308643,0)" xlink:href="#aq"/><use transform="matrix(0.04938271604938272,0,0,0.04938271604938272,74.96296296296298,0)" xlink:href="#ax"/><use transform="matrix(0.04938271604938272,0,0,0.04938271604938272,84.83950617283952,0)" xlink:href="#ay"/></g><path fill="#3a414a" d="M177-190C167-65 218 103 67 71c-23-6-38-20-44-43l32-5c15 47 100 32 89-28v-30C133-14 115 1 83 1 29 1 15-40 15-95c0-56 16-97 71-98 29-1 48 16 59 35 1-10 0-23 2-32h30zM94-22c36 0 50-32 50-73 0-42-14-75-50-75-39 0-46 34-46 75s6 73 46 73" id="aC"/><g id="n"><use transform="matrix(0.04938271604938272,0,0,0.04938271604938272,0,0)" xlink:href="#ap"/><use transform="matrix(0.04938271604938272,0,0,0.04938271604938272,8.88888888888889,0)" xlink:href="#ay"/><use transform="matrix(0.04938271604938272,0,0,0.04938271604938272,13.827160493827162,0)" xlink:href="#ao"/><use transform="matrix(0.04938271604938272,0,0,0.04938271604938272,19.703703703703706,0)" xlink:href="#av"/><use transform="matrix(0.04938271604938272,0,0,0.04938271604938272,23.60493827160494,0)" xlink:href="#ax"/><use transform="matrix(0.04938271604938272,0,0,0.04938271604938272,33.48148148148148,0)" xlink:href="#aC"/></g><path fill="#3a414a" d="M115-194c53 0 69 39 70 98 0 66-23 100-70 100C84 3 66-7 56-30L54 0H23l1-261h32v101c10-23 28-34 59-34zm-8 174c40 0 45-34 45-75 0-40-5-75-45-74-42 0-51 32-51 76 0 43 10 73 51 73" id="aD"/><g id="o"><use transform="matrix(0.04938271604938272,0,0,0.04938271604938272,0,0)" xlink:href="#at"/><use transform="matrix(0.04938271604938272,0,0,0.04938271604938272,8.88888888888889,0)" xlink:href="#am"/><use transform="matrix(0.04938271604938272,0,0,0.04938271604938272,18.765432098765434,0)" xlink:href="#an"/><use transform="matrix(0.04938271604938272,0,0,0.04938271604938272,28.641975308641978,0)" xlink:href="#ao"/><use transform="matrix(0.04938271604938272,0,0,0.04938271604938272,34.51851851851852,0)" xlink:href="#ap"/><use transform="matrix(0.04938271604938272,0,0,0.04938271604938272,43.407407407407405,0)" xlink:href="#aq"/><use transform="matrix(0.04938271604938272,0,0,0.04938271604938272,53.28395061728394,0)" xlink:href="#au"/><use transform="matrix(0.04938271604938272,0,0,0.04938271604938272,63.1604938271605,0)" xlink:href="#ax"/><use transform="matrix(0.04938271604938272,0,0,0.04938271604938272,73.03703703703704,0)" xlink:href="#an"/><use transform="matrix(0.04938271604938272,0,0,0.04938271604938272,82.91358024691358,0)" xlink:href="#aB"/><use transform="matrix(0.04938271604938272,0,0,0.04938271604938272,97.67901234567901,0)" xlink:href="#aD"/><use transform="matrix(0.04938271604938272,0,0,0.04938271604938272,107.55555555555557,0)" xlink:href="#aq"/><use transform="matrix(0.04938271604938272,0,0,0.04938271604938272,117.43209876543212,0)" xlink:href="#ao"/></g><g id="p"><use transform="matrix(0.04938271604938272,0,0,0.04938271604938272,0,0)" xlink:href="#at"/><use transform="matrix(0.04938271604938272,0,0,0.04938271604938272,8.88888888888889,0)" xlink:href="#am"/><use transform="matrix(0.04938271604938272,0,0,0.04938271604938272,18.765432098765434,0)" xlink:href="#an"/><use transform="matrix(0.04938271604938272,0,0,0.04938271604938272,28.641975308641978,0)" xlink:href="#ao"/><use transform="matrix(0.04938271604938272,0,0,0.04938271604938272,34.51851851851852,0)" xlink:href="#ap"/><use transform="matrix(0.04938271604938272,0,0,0.04938271604938272,43.407407407407405,0)" xlink:href="#aq"/><use transform="matrix(0.04938271604938272,0,0,0.04938271604938272,53.28395061728394,0)" xlink:href="#au"/><use transform="matrix(0.04938271604938272,0,0,0.04938271604938272,63.1604938271605,0)" xlink:href="#ax"/><use transform="matrix(0.04938271604938272,0,0,0.04938271604938272,73.03703703703704,0)" xlink:href="#aA"/><use transform="matrix(0.04938271604938272,0,0,0.04938271604938272,82.91358024691358,0)" xlink:href="#aB"/><use transform="matrix(0.04938271604938272,0,0,0.04938271604938272,97.67901234567901,0)" xlink:href="#aq"/></g><g id="q"><use transform="matrix(0.04938271604938272,0,0,0.04938271604938272,0,0)" xlink:href="#ap"/><use transform="matrix(0.04938271604938272,0,0,0.04938271604938272,8.88888888888889,0)" xlink:href="#aq"/><use transform="matrix(0.04938271604938272,0,0,0.04938271604938272,18.765432098765434,0)" xlink:href="#aB"/><use transform="matrix(0.04938271604938272,0,0,0.04938271604938272,33.53086419753087,0)" xlink:href="#aq"/><use transform="matrix(0.04938271604938272,0,0,0.04938271604938272,43.40740740740741,0)" xlink:href="#ap"/><use transform="matrix(0.04938271604938272,0,0,0.04938271604938272,52.2962962962963,0)" xlink:href="#ay"/><use transform="matrix(0.04938271604938272,0,0,0.04938271604938272,57.23456790123457,0)" xlink:href="#aq"/><use transform="matrix(0.04938271604938272,0,0,0.04938271604938272,67.11111111111111,0)" xlink:href="#ao"/></g><path fill="#3a414a" d="M179-190L93 31C79 59 56 82 12 73V49c39 6 53-20 64-50L1-190h34L92-34l54-156h33" id="aE"/><g id="r"><use transform="matrix(0.04938271604938272,0,0,0.04938271604938272,0,0)" xlink:href="#aE"/><use transform="matrix(0.04938271604938272,0,0,0.04938271604938272,8.88888888888889,0)" xlink:href="#aq"/><use transform="matrix(0.04938271604938272,0,0,0.04938271604938272,18.765432098765434,0)" xlink:href="#aA"/><use transform="matrix(0.04938271604938272,0,0,0.04938271604938272,28.641975308641978,0)" xlink:href="#ao"/></g><path fill="#3a414a" d="M185-189c-5-48-123-54-124 2 14 75 158 14 163 119 3 78-121 87-175 55-17-10-28-26-33-46l33-7c5 56 141 63 141-1 0-78-155-14-162-118-5-82 145-84 179-34 5 7 8 16 11 25" id="aF"/><g id="s"><use transform="matrix(0.04938271604938272,0,0,0.04938271604938272,0,0)" xlink:href="#aF"/><use transform="matrix(0.04938271604938272,0,0,0.04938271604938272,11.851851851851853,0)" xlink:href="#ay"/><use transform="matrix(0.04938271604938272,0,0,0.04938271604938272,16.790123456790127,0)" xlink:href="#an"/><use transform="matrix(0.04938271604938272,0,0,0.04938271604938272,26.666666666666668,0)" xlink:href="#aw"/><use transform="matrix(0.04938271604938272,0,0,0.04938271604938272,36.543209876543216,0)" xlink:href="#aq"/><use transform="matrix(0.04938271604938272,0,0,0.04938271604938272,46.41975308641976,0)" xlink:href="#ax"/><use transform="matrix(0.04938271604938272,0,0,0.04938271604938272,56.2962962962963,0)" xlink:href="#ay"/></g><g id="t"><use transform="matrix(0.04938271604938272,0,0,0.04938271604938272,0,0)" xlink:href="#ap"/><use transform="matrix(0.04938271604938272,0,0,0.04938271604938272,8.88888888888889,0)" xlink:href="#ay"/><use transform="matrix(0.04938271604938272,0,0,0.04938271604938272,13.827160493827162,0)" xlink:href="#an"/><use transform="matrix(0.04938271604938272,0,0,0.04938271604938272,23.703703703703706,0)" xlink:href="#aw"/><use transform="matrix(0.04938271604938272,0,0,0.04938271604938272,33.580246913580254,0)" xlink:href="#aq"/><use transform="matrix(0.04938271604938272,0,0,0.04938271604938272,43.4567901234568,0)" xlink:href="#ax"/><use transform="matrix(0.04938271604938272,0,0,0.04938271604938272,53.333333333333336,0)" xlink:href="#ay"/><use transform="matrix(0.04938271604938272,0,0,0.04938271604938272,58.27160493827161,0)" xlink:href="#au"/><use transform="matrix(0.04938271604938272,0,0,0.04938271604938272,68.14814814814815,0)" xlink:href="#av"/><use transform="matrix(0.04938271604938272,0,0,0.04938271604938272,72.0493827160494,0)" xlink:href="#aw"/></g><path fill="#3a414a" d="M63-220v92h138v28H63V0H30v-248h175v28H63" id="aG"/><g id="u"><use transform="matrix(0.04938271604938272,0,0,0.04938271604938272,0,0)" xlink:href="#aG"/><use transform="matrix(0.04938271604938272,0,0,0.04938271604938272,10.814814814814815,0)" xlink:href="#as"/></g><path fill="#3a414a" d="M101-234c-31-9-42 10-38 44h38v23H63V0H32v-167H5v-23h27c-7-52 17-82 69-68v24" id="aH"/><g id="v"><use transform="matrix(0.04938271604938272,0,0,0.04938271604938272,0,0)" xlink:href="#aH"/><use transform="matrix(0.04938271604938272,0,0,0.04938271604938272,4.938271604938272,0)" xlink:href="#av"/><use transform="matrix(0.04938271604938272,0,0,0.04938271604938272,8.839506172839506,0)" xlink:href="#ao"/><use transform="matrix(0.04938271604938272,0,0,0.04938271604938272,14.71604938271605,0)" xlink:href="#ap"/><use transform="matrix(0.04938271604938272,0,0,0.04938271604938272,23.60493827160494,0)" xlink:href="#ay"/><use transform="matrix(0.04938271604938272,0,0,0.04938271604938272,28.543209876543212,0)" xlink:href="#au"/><use transform="matrix(0.04938271604938272,0,0,0.04938271604938272,38.41975308641976,0)" xlink:href="#ax"/><use transform="matrix(0.04938271604938272,0,0,0.04938271604938272,48.296296296296305,0)" xlink:href="#aA"/><use transform="matrix(0.04938271604938272,0,0,0.04938271604938272,58.17283950617284,0)" xlink:href="#aB"/><use transform="matrix(0.04938271604938272,0,0,0.04938271604938272,72.93827160493828,0)" xlink:href="#aq"/></g><path fill="#3a414a" d="M24 0v-261h32V0H24" id="aI"/><g id="w"><use transform="matrix(0.04938271604938272,0,0,0.04938271604938272,0,0)" xlink:href="#aI"/><use transform="matrix(0.04938271604938272,0,0,0.04938271604938272,3.901234567901235,0)" xlink:href="#aA"/><use transform="matrix(0.04938271604938272,0,0,0.04938271604938272,13.777777777777779,0)" xlink:href="#ap"/><use transform="matrix(0.04938271604938272,0,0,0.04938271604938272,22.666666666666668,0)" xlink:href="#ay"/><use transform="matrix(0.04938271604938272,0,0,0.04938271604938272,27.60493827160494,0)" xlink:href="#au"/><use transform="matrix(0.04938271604938272,0,0,0.04938271604938272,37.48148148148148,0)" xlink:href="#ax"/><use transform="matrix(0.04938271604938272,0,0,0.04938271604938272,47.358024691358025,0)" xlink:href="#aA"/><use transform="matrix(0.04938271604938272,0,0,0.04938271604938272,57.23456790123457,0)" xlink:href="#aB"/><use transform="matrix(0.04938271604938272,0,0,0.04938271604938272,72,0)" xlink:href="#aq"/></g><path fill="#3a414a" d="M205 0l-28-72H64L36 0H1l101-248h38L239 0h-34zm-38-99l-47-123c-12 45-31 82-46 123h93" id="aJ"/><g id="x"><use transform="matrix(0.04938271604938272,0,0,0.04938271604938272,0,0)" xlink:href="#aJ"/><use transform="matrix(0.04938271604938272,0,0,0.04938271604938272,11.851851851851853,0)" xlink:href="#ap"/><use transform="matrix(0.04938271604938272,0,0,0.04938271604938272,20.74074074074074,0)" xlink:href="#ap"/><use transform="matrix(0.04938271604938272,0,0,0.04938271604938272,29.629629629629633,0)" xlink:href="#av"/><use transform="matrix(0.04938271604938272,0,0,0.04938271604938272,33.53086419753087,0)" xlink:href="#aC"/><use transform="matrix(0.04938271604938272,0,0,0.04938271604938272,43.40740740740741,0)" xlink:href="#ax"/><use transform="matrix(0.04938271604938272,0,0,0.04938271604938272,53.283950617283956,0)" xlink:href="#aB"/><use transform="matrix(0.04938271604938272,0,0,0.04938271604938272,68.0493827160494,0)" xlink:href="#aq"/><use transform="matrix(0.04938271604938272,0,0,0.04938271604938272,77.92592592592594,0)" xlink:href="#ax"/><use transform="matrix(0.04938271604938272,0,0,0.04938271604938272,87.80246913580248,0)" xlink:href="#ay"/></g><g id="y"><use transform="matrix(0.04938271604938272,0,0,0.04938271604938272,0,0)" xlink:href="#aA"/><use transform="matrix(0.04938271604938272,0,0,0.04938271604938272,9.876543209876544,0)" xlink:href="#ap"/><use transform="matrix(0.04938271604938272,0,0,0.04938271604938272,18.765432098765434,0)" xlink:href="#ap"/><use transform="matrix(0.04938271604938272,0,0,0.04938271604938272,27.654320987654323,0)" xlink:href="#av"/><use transform="matrix(0.04938271604938272,0,0,0.04938271604938272,31.555555555555557,0)" xlink:href="#aC"/><use transform="matrix(0.04938271604938272,0,0,0.04938271604938272,41.4320987654321,0)" xlink:href="#ax"/><use transform="matrix(0.04938271604938272,0,0,0.04938271604938272,51.308641975308646,0)" xlink:href="#aB"/><use transform="matrix(0.04938271604938272,0,0,0.04938271604938272,66.07407407407408,0)" xlink:href="#aq"/><use transform="matrix(0.04938271604938272,0,0,0.04938271604938272,75.95061728395062,0)" xlink:href="#ax"/><use transform="matrix(0.04938271604938272,0,0,0.04938271604938272,85.82716049382717,0)" xlink:href="#ay"/><use transform="matrix(0.04938271604938272,0,0,0.04938271604938272,90.76543209876544,0)" xlink:href="#au"/><use transform="matrix(0.04938271604938272,0,0,0.04938271604938272,100.64197530864199,0)" xlink:href="#av"/><use transform="matrix(0.04938271604938272,0,0,0.04938271604938272,104.54320987654324,0)" xlink:href="#aw"/></g><g id="z"><use transform="matrix(0.04938271604938272,0,0,0.04938271604938272,0,0)" xlink:href="#az"/><use transform="matrix(0.04938271604938272,0,0,0.04938271604938272,9.876543209876544,0)" xlink:href="#aq"/><use transform="matrix(0.04938271604938272,0,0,0.04938271604938272,19.75308641975309,0)" xlink:href="#ao"/><use transform="matrix(0.04938271604938272,0,0,0.04938271604938272,25.629629629629633,0)" xlink:href="#at"/><use transform="matrix(0.04938271604938272,0,0,0.04938271604938272,34.51851851851852,0)" xlink:href="#aq"/><use transform="matrix(0.04938271604938272,0,0,0.04938271604938272,44.39506172839506,0)" xlink:href="#ax"/><use transform="matrix(0.04938271604938272,0,0,0.04938271604938272,54.27160493827161,0)" xlink:href="#ay"/><use transform="matrix(0.04938271604938272,0,0,0.04938271604938272,59.20987654320988,0)" xlink:href="#aA"/><use transform="matrix(0.04938271604938272,0,0,0.04938271604938272,69.08641975308643,0)" xlink:href="#aC"/><use transform="matrix(0.04938271604938272,0,0,0.04938271604938272,78.96296296296298,0)" xlink:href="#aq"/></g><g id="A"><use transform="matrix(0.04938271604938272,0,0,0.04938271604938272,0,0)" xlink:href="#aH"/><use transform="matrix(0.04938271604938272,0,0,0.04938271604938272,4.938271604938272,0)" xlink:href="#aI"/><use transform="matrix(0.04938271604938272,0,0,0.04938271604938272,8.839506172839506,0)" xlink:href="#am"/><use transform="matrix(0.04938271604938272,0,0,0.04938271604938272,18.71604938271605,0)" xlink:href="#aA"/><use transform="matrix(0.04938271604938272,0,0,0.04938271604938272,28.592592592592595,0)" xlink:href="#ay"/></g><g id="B"><use transform="matrix(0.04938271604938272,0,0,0.04938271604938272,0,0)" xlink:href="#at"/><use transform="matrix(0.04938271604938272,0,0,0.04938271604938272,8.88888888888889,0)" xlink:href="#aA"/><use transform="matrix(0.04938271604938272,0,0,0.04938271604938272,18.765432098765434,0)" xlink:href="#ay"/><use transform="matrix(0.04938271604938272,0,0,0.04938271604938272,23.703703703703706,0)" xlink:href="#aq"/><use transform="matrix(0.04938271604938272,0,0,0.04938271604938272,33.580246913580254,0)" xlink:href="#aC"/><use transform="matrix(0.04938271604938272,0,0,0.04938271604938272,43.4567901234568,0)" xlink:href="#am"/><use transform="matrix(0.04938271604938272,0,0,0.04938271604938272,53.333333333333336,0)" xlink:href="#ao"/><use transform="matrix(0.04938271604938272,0,0,0.04938271604938272,59.209876543209894,0)" xlink:href="#aE"/></g><path fill="#3a414a" d="M143 4C61 4 22-44 18-125c-5-107 100-154 193-111 17 8 29 25 37 43l-32 9c-13-25-37-40-76-40-61 0-88 39-88 99 0 61 29 100 91 101 35 0 62-11 79-27v-45h-74v-28h105v86C228-13 192 4 143 4" id="aK"/><g id="C"><use transform="matrix(0.04938271604938272,0,0,0.04938271604938272,0,0)" xlink:href="#aK"/><use transform="matrix(0.04938271604938272,0,0,0.04938271604938272,13.827160493827162,0)" xlink:href="#ao"/><use transform="matrix(0.04938271604938272,0,0,0.04938271604938272,19.703703703703706,0)" xlink:href="#aA"/><use transform="matrix(0.04938271604938272,0,0,0.04938271604938272,29.58024691358025,0)" xlink:href="#aw"/><use transform="matrix(0.04938271604938272,0,0,0.04938271604938272,39.4567901234568,0)" xlink:href="#aq"/></g><g id="D"><use transform="matrix(0.04938271604938272,0,0,0.04938271604938272,0,0)" xlink:href="#aC"/><use transform="matrix(0.04938271604938272,0,0,0.04938271604938272,9.876543209876544,0)" xlink:href="#ao"/><use transform="matrix(0.04938271604938272,0,0,0.04938271604938272,15.753086419753087,0)" xlink:href="#aA"/><use transform="matrix(0.04938271604938272,0,0,0.04938271604938272,25.629629629629633,0)" xlink:href="#aw"/><use transform="matrix(0.04938271604938272,0,0,0.04938271604938272,35.50617283950618,0)" xlink:href="#aq"/><use transform="matrix(0.04938271604938272,0,0,0.04938271604938272,45.38271604938272,0)" xlink:href="#au"/><use transform="matrix(0.04938271604938272,0,0,0.04938271604938272,55.25925925925927,0)" xlink:href="#av"/><use transform="matrix(0.04938271604938272,0,0,0.04938271604938272,59.1604938271605,0)" xlink:href="#aw"/></g><g id="E"><use transform="matrix(0.04938271604938272,0,0,0.04938271604938272,0,0)" xlink:href="#ap"/><use transform="matrix(0.04938271604938272,0,0,0.04938271604938272,8.88888888888889,0)" xlink:href="#at"/><use transform="matrix(0.04938271604938272,0,0,0.04938271604938272,17.77777777777778,0)" xlink:href="#am"/><use transform="matrix(0.04938271604938272,0,0,0.04938271604938272,27.654320987654323,0)" xlink:href="#ao"/><use transform="matrix(0.04938271604938272,0,0,0.04938271604938272,33.53086419753087,0)" xlink:href="#aq"/></g><path fill="#3a414a" d="M67-125c0 53 21 87 73 88 37 1 54-22 65-47l45 17C233-25 199 4 140 4 58 4 20-42 15-125 8-235 124-281 211-232c18 10 29 29 36 50l-46 12c-8-25-30-41-62-41-52 0-71 34-72 86" id="aL"/><path fill="#3a414a" d="M110-194c64 0 96 36 96 99 0 64-35 99-97 99-61 0-95-36-95-99 0-62 34-99 96-99zm-1 164c35 0 45-28 45-65 0-40-10-65-43-65-34 0-45 26-45 65 0 36 10 65 43 65" id="aM"/><path fill="#3a414a" d="M135-194c87-1 58 113 63 194h-50c-7-57 23-157-34-157-59 0-34 97-39 157H25l-1-190h47c2 12-1 28 3 38 12-26 28-41 61-42" id="aN"/><path fill="#3a414a" d="M137-138c1-29-70-34-71-4 15 46 118 7 119 86 1 83-164 76-172 9l43-7c4 19 20 25 44 25 33 8 57-30 24-41C81-84 22-81 20-136c-2-80 154-74 161-7" id="aO"/><path fill="#3a414a" d="M25-224v-37h50v37H25zM25 0v-190h50V0H25" id="aP"/><path fill="#3a414a" d="M115-3C79 11 28 4 28-45v-112H4v-33h27l15-45h31v45h36v33H77v99c-1 23 16 31 38 25v30" id="aQ"/><g id="F"><use transform="matrix(0.06172839506172839,0,0,0.06172839506172839,0,0)" xlink:href="#aL"/><use transform="matrix(0.06172839506172839,0,0,0.06172839506172839,15.987654320987653,0)" xlink:href="#aM"/><use transform="matrix(0.06172839506172839,0,0,0.06172839506172839,29.50617283950617,0)" xlink:href="#aN"/><use transform="matrix(0.06172839506172839,0,0,0.06172839506172839,43.02469135802469,0)" xlink:href="#aO"/><use transform="matrix(0.06172839506172839,0,0,0.06172839506172839,55.37037037037037,0)" xlink:href="#aP"/><use transform="matrix(0.06172839506172839,0,0,0.06172839506172839,61.54320987654321,0)" xlink:href="#aO"/><use transform="matrix(0.06172839506172839,0,0,0.06172839506172839,73.88888888888889,0)" xlink:href="#aQ"/><use transform="matrix(0.06172839506172839,0,0,0.06172839506172839,81.23456790123457,0)" xlink:href="#aO"/></g><path fill="#3a414a" d="M121-226c-27-7-43 5-38 36h38v33H83V0H34v-157H6v-33h28c-9-59 32-81 87-68v32" id="aR"/><g id="G"><use transform="matrix(0.06172839506172839,0,0,0.06172839506172839,0,0)" xlink:href="#O"/><use transform="matrix(0.06172839506172839,0,0,0.06172839506172839,17.28395061728395,0)" xlink:href="#aR"/></g><g id="H"><use transform="matrix(0.055555555555555546,0,0,0.055555555555555546,0,0)" xlink:href="#I"/><use transform="matrix(0.055555555555555546,0,0,0.055555555555555546,6.61111111111111,0)" xlink:href="#N"/><use transform="matrix(0.055555555555555546,0,0,0.055555555555555546,17.722222222222218,0)" xlink:href="#K"/><use transform="matrix(0.055555555555555546,0,0,0.055555555555555546,23.27777777777777,0)" xlink:href="#N"/><use transform="matrix(0.055555555555555546,0,0,0.055555555555555546,34.38888888888888,0)" xlink:href="#M"/></g></defs></g></svg>